<?xml version="1.0" encoding="UTF-8"?>
<svg xmlns="http://www.w3.org/2000/svg" width="40" height="40" viewBox="0 0 40 40" fill="none">
  <circle cx="20" cy="20" r="19.5" fill="#F3F4F6" stroke="#E5E7EB"/>
  <path d="M20 11C18.067 11 16.5 12.567 16.5 14.5C16.5 16.433 18.067 18 20 18C21.933 18 23.5 16.433 23.5 14.5C23.5 12.567 21.933 11 20 11Z" fill="#9CA3AF"/>
  <path d="M14 25.5C14 23.567 15.567 22 17.5 22H22.5C24.433 22 26 23.567 26 25.5V27C26 27.552 25.552 28 25 28H15C14.448 28 14 27.552 14 27V25.5Z" fill="#9CA3AF"/>
</svg>
